<mxfile host="app.diagrams.net" modified="2021-02-06T03:59:01.902Z" agent="5.0 (Windows NT 10.0; Win64; x64) AppleWebKit/537.36 (KHTML, like Gecko) Chrome/86.0.4240.193 Safari/537.36" etag="KHFltNnaN7VQldnOglhy" version="14.2.9" type="github" pages="2">
  <diagram name="Page-1" id="822b0af5-4adb-64df-f703-e8dfc1f81529">
    <mxGraphModel dx="2760" dy="1389" grid="1" gridSize="10" guides="1" tooltips="1" connect="1" arrows="1" fold="1" page="1" pageScale="1" pageWidth="1100" pageHeight="850" background="#ffffff" math="0" shadow="0">
      <root>
        <mxCell id="0" />
        <mxCell id="1" parent="0" />
        <mxCell id="7d933b09d9755ecc-14" value="Resource forest" style="triangle;whiteSpace=wrap;html=1;rounded=0;shadow=0;comic=0;strokeWidth=1;fontFamily=Verdana;direction=north;labelPosition=center;verticalLabelPosition=bottom;align=center;verticalAlign=top;" parent="1" vertex="1">
          <mxGeometry x="830" y="230" width="530" height="537" as="geometry" />
        </mxCell>
        <mxCell id="7d933b09d9755ecc-12" value="User forest" style="triangle;whiteSpace=wrap;html=1;rounded=0;shadow=0;comic=0;strokeWidth=1;fontFamily=Verdana;direction=north;labelPosition=center;verticalLabelPosition=bottom;align=center;verticalAlign=top;" parent="1" vertex="1">
          <mxGeometry x="400" y="92" width="286" height="340" as="geometry" />
        </mxCell>
        <mxCell id="7d933b09d9755ecc-13" value="" style="ellipse;whiteSpace=wrap;html=1;rounded=0;shadow=0;comic=0;strokeWidth=1;fontFamily=Verdana;" parent="1" vertex="1">
          <mxGeometry x="473" y="326" width="142" height="94" as="geometry" />
        </mxCell>
        <mxCell id="7d933b09d9755ecc-4" value="" style="verticalLabelPosition=bottom;aspect=fixed;html=1;verticalAlign=top;strokeColor=none;shape=mxgraph.citrix.directory_server;rounded=0;shadow=0;comic=0;fontFamily=Verdana;" parent="1" vertex="1">
          <mxGeometry x="1063" y="64" width="65" height="88.5" as="geometry" />
        </mxCell>
        <mxCell id="7d933b09d9755ecc-5" value="" style="verticalLabelPosition=bottom;aspect=fixed;html=1;verticalAlign=top;strokeColor=none;shape=mxgraph.citrix.file_server;rounded=0;shadow=0;comic=0;fontFamily=Verdana;" parent="1" vertex="1">
          <mxGeometry x="1053" y="611" width="71" height="97" as="geometry" />
        </mxCell>
        <mxCell id="7d933b09d9755ecc-6" value="Users" style="verticalLabelPosition=bottom;aspect=fixed;html=1;verticalAlign=top;strokeColor=none;shape=mxgraph.citrix.users;rounded=0;shadow=0;comic=0;fontFamily=Verdana;" parent="1" vertex="1">
          <mxGeometry x="511" y="339" width="64.5" height="55" as="geometry" />
        </mxCell>
        <mxCell id="7d933b09d9755ecc-9" value="" style="verticalLabelPosition=bottom;aspect=fixed;html=1;verticalAlign=top;strokeColor=none;shape=mxgraph.citrix.tower_server;rounded=0;shadow=0;comic=0;fontFamily=Verdana;" parent="1" vertex="1">
          <mxGeometry x="511" y="193" width="65" height="85" as="geometry" />
        </mxCell>
        <mxCell id="7d933b09d9755ecc-15" value="" style="ellipse;whiteSpace=wrap;html=1;rounded=0;shadow=0;comic=0;strokeWidth=1;fontFamily=Verdana;" parent="1" vertex="1">
          <mxGeometry x="979" y="440" width="220" height="140" as="geometry" />
        </mxCell>
        <mxCell id="7d933b09d9755ecc-16" value="Disabled users" style="verticalLabelPosition=bottom;aspect=fixed;html=1;verticalAlign=top;strokeColor=none;shape=mxgraph.citrix.users;rounded=0;shadow=0;comic=0;fontFamily=Verdana;" parent="1" vertex="1">
          <mxGeometry x="1060" y="477" width="64.5" height="55" as="geometry" />
        </mxCell>
        <mxCell id="7d933b09d9755ecc-17" value="" style="verticalLabelPosition=bottom;aspect=fixed;html=1;verticalAlign=top;strokeColor=none;shape=mxgraph.citrix.tower_server;rounded=0;shadow=0;comic=0;fontFamily=Verdana;" parent="1" vertex="1">
          <mxGeometry x="1060" y="331" width="65" height="85" as="geometry" />
        </mxCell>
        <mxCell id="7d933b09d9755ecc-18" value="User forest" style="triangle;whiteSpace=wrap;html=1;rounded=0;shadow=0;comic=0;strokeWidth=1;fontFamily=Verdana;direction=north;labelPosition=center;verticalLabelPosition=bottom;align=center;verticalAlign=top;" parent="1" vertex="1">
          <mxGeometry x="1580" y="76" width="286" height="340" as="geometry" />
        </mxCell>
        <mxCell id="7d933b09d9755ecc-19" value="" style="ellipse;whiteSpace=wrap;html=1;rounded=0;shadow=0;comic=0;strokeWidth=1;fontFamily=Verdana;" parent="1" vertex="1">
          <mxGeometry x="1653" y="310" width="142" height="90" as="geometry" />
        </mxCell>
        <mxCell id="7d933b09d9755ecc-20" value="Users" style="verticalLabelPosition=bottom;aspect=fixed;html=1;verticalAlign=top;strokeColor=none;shape=mxgraph.citrix.users;rounded=0;shadow=0;comic=0;fontFamily=Verdana;" parent="1" vertex="1">
          <mxGeometry x="1691" y="323" width="64.5" height="55" as="geometry" />
        </mxCell>
        <mxCell id="7d933b09d9755ecc-21" value="" style="verticalLabelPosition=bottom;aspect=fixed;html=1;verticalAlign=top;strokeColor=none;shape=mxgraph.citrix.tower_server;rounded=0;shadow=0;comic=0;fontFamily=Verdana;" parent="1" vertex="1">
          <mxGeometry x="1691" y="177" width="65" height="85" as="geometry" />
        </mxCell>
        <mxCell id="7d933b09d9755ecc-22" style="rounded=0;html=1;labelBackgroundColor=none;startArrow=none;startFill=0;endArrow=block;endFill=1;strokeColor=#0000FF;strokeWidth=1;fontFamily=Verdana;fontSize=12" parent="1" source="7d933b09d9755ecc-19" target="7d933b09d9755ecc-15" edge="1">
          <mxGeometry relative="1" as="geometry" />
        </mxCell>
        <mxCell id="7d933b09d9755ecc-23" style="rounded=0;html=1;labelBackgroundColor=none;startArrow=none;startFill=0;endArrow=block;endFill=1;strokeColor=#0000FF;strokeWidth=1;fontFamily=Verdana;fontSize=12" parent="1" source="7d933b09d9755ecc-13" target="7d933b09d9755ecc-15" edge="1">
          <mxGeometry relative="1" as="geometry" />
        </mxCell>
        <mxCell id="7d933b09d9755ecc-24" style="edgeStyle=none;rounded=0;html=1;exitX=0.5;exitY=1;labelBackgroundColor=none;startArrow=none;startFill=0;endArrow=block;endFill=1;strokeColor=#0000FF;strokeWidth=1;fontFamily=Verdana;fontSize=12;fontColor=#000000;" parent="1" source="7d933b09d9755ecc-15" target="7d933b09d9755ecc-5" edge="1">
          <mxGeometry relative="1" as="geometry" />
        </mxCell>
        <mxCell id="7d933b09d9755ecc-25" value="Trust relationship" style="html=1;labelBackgroundColor=none;startArrow=none;startFill=0;endArrow=block;endFill=1;strokeColor=#FF0000;strokeWidth=1;fontFamily=Verdana;fontSize=12;entryX=1;entryY=0.5;curved=1;" parent="1" target="7d933b09d9755ecc-18" edge="1">
          <mxGeometry x="-0.0165" y="-10" relative="1" as="geometry">
            <mxPoint x="1095" y="230" as="sourcePoint" />
            <mxPoint x="1530" y="240" as="targetPoint" />
            <Array as="points">
              <mxPoint x="1400" y="110" />
            </Array>
            <mxPoint as="offset" />
          </mxGeometry>
        </mxCell>
        <mxCell id="7d933b09d9755ecc-26" value="Trust relationship" style="html=1;entryX=1;entryY=0.5;labelBackgroundColor=none;startArrow=none;startFill=0;endArrow=block;endFill=1;strokeColor=#FF0000;strokeWidth=1;fontFamily=Verdana;fontSize=12;curved=1;" parent="1" target="7d933b09d9755ecc-12" edge="1">
          <mxGeometry x="-0.0644" y="45" relative="1" as="geometry">
            <mxPoint x="1095" y="230" as="sourcePoint" />
            <Array as="points">
              <mxPoint x="920" y="120" />
            </Array>
            <mxPoint as="offset" />
          </mxGeometry>
        </mxCell>
        <mxCell id="7d933b09d9755ecc-27" value="Synchronization" style="rounded=0;html=1;entryX=0.878;entryY=0.433;entryPerimeter=0;labelBackgroundColor=none;startArrow=none;startFill=0;endArrow=block;endFill=1;strokeWidth=1;fontFamily=Verdana;fontSize=12" parent="1" source="7d933b09d9755ecc-4" target="7d933b09d9755ecc-18" edge="1">
          <mxGeometry x="-0.3348" y="21" relative="1" as="geometry">
            <mxPoint as="offset" />
          </mxGeometry>
        </mxCell>
        <mxCell id="7d933b09d9755ecc-28" value="Synchronization" style="edgeStyle=none;rounded=0;html=1;labelBackgroundColor=none;startArrow=none;startFill=0;endArrow=block;endFill=1;strokeWidth=1;fontFamily=Verdana;fontSize=12" parent="1" source="7d933b09d9755ecc-4" target="7d933b09d9755ecc-14" edge="1">
          <mxGeometry x="-0.2966" relative="1" as="geometry">
            <mxPoint as="offset" />
          </mxGeometry>
        </mxCell>
        <mxCell id="7d933b09d9755ecc-29" value="Synchronization" style="edgeStyle=none;rounded=0;html=1;entryX=0.912;entryY=0.559;entryPerimeter=0;labelBackgroundColor=none;startArrow=none;startFill=0;endArrow=block;endFill=1;strokeWidth=1;fontFamily=Verdana;fontSize=12" parent="1" source="7d933b09d9755ecc-4" target="7d933b09d9755ecc-12" edge="1">
          <mxGeometry x="-0.1948" y="-14" relative="1" as="geometry">
            <mxPoint as="offset" />
          </mxGeometry>
        </mxCell>
        <mxCell id="7d933b09d9755ecc-31" value="User forest" style="triangle;whiteSpace=wrap;html=1;rounded=0;shadow=0;comic=0;strokeWidth=1;fontFamily=Verdana;direction=north;labelPosition=center;verticalLabelPosition=bottom;align=center;verticalAlign=top;" parent="1" vertex="1">
          <mxGeometry x="483" y="477" width="286" height="340" as="geometry" />
        </mxCell>
        <mxCell id="7d933b09d9755ecc-32" value="" style="ellipse;whiteSpace=wrap;html=1;rounded=0;shadow=0;comic=0;strokeWidth=1;fontFamily=Verdana;" parent="1" vertex="1">
          <mxGeometry x="556" y="711" width="142" height="89" as="geometry" />
        </mxCell>
        <mxCell id="7d933b09d9755ecc-33" value="Users" style="verticalLabelPosition=bottom;aspect=fixed;html=1;verticalAlign=top;strokeColor=none;shape=mxgraph.citrix.users;rounded=0;shadow=0;comic=0;fontFamily=Verdana;" parent="1" vertex="1">
          <mxGeometry x="594" y="724" width="64.5" height="55" as="geometry" />
        </mxCell>
        <mxCell id="7d933b09d9755ecc-34" value="" style="verticalLabelPosition=bottom;aspect=fixed;html=1;verticalAlign=top;strokeColor=none;shape=mxgraph.citrix.tower_server;rounded=0;shadow=0;comic=0;fontFamily=Verdana;" parent="1" vertex="1">
          <mxGeometry x="594" y="578" width="65" height="85" as="geometry" />
        </mxCell>
        <mxCell id="7d933b09d9755ecc-35" value="User forest" style="triangle;whiteSpace=wrap;html=1;rounded=0;shadow=0;comic=0;strokeWidth=1;fontFamily=Verdana;direction=north;labelPosition=center;verticalLabelPosition=bottom;align=center;verticalAlign=top;" parent="1" vertex="1">
          <mxGeometry x="1405" y="460" width="286" height="340" as="geometry" />
        </mxCell>
        <mxCell id="7d933b09d9755ecc-36" value="" style="ellipse;whiteSpace=wrap;html=1;rounded=0;shadow=0;comic=0;strokeWidth=1;fontFamily=Verdana;" parent="1" vertex="1">
          <mxGeometry x="1478" y="694" width="142" height="96" as="geometry" />
        </mxCell>
        <mxCell id="7d933b09d9755ecc-37" value="Users" style="verticalLabelPosition=bottom;aspect=fixed;html=1;verticalAlign=top;strokeColor=none;shape=mxgraph.citrix.users;rounded=0;shadow=0;comic=0;fontFamily=Verdana;" parent="1" vertex="1">
          <mxGeometry x="1516" y="707" width="64.5" height="55" as="geometry" />
        </mxCell>
        <mxCell id="7d933b09d9755ecc-38" value="" style="verticalLabelPosition=bottom;aspect=fixed;html=1;verticalAlign=top;strokeColor=none;shape=mxgraph.citrix.tower_server;rounded=0;shadow=0;comic=0;fontFamily=Verdana;" parent="1" vertex="1">
          <mxGeometry x="1516" y="561" width="65" height="85" as="geometry" />
        </mxCell>
        <mxCell id="7d933b09d9755ecc-39" style="edgeStyle=none;rounded=0;html=1;exitX=1;exitY=0.5;labelBackgroundColor=none;startFill=0;endArrow=block;endFill=1;strokeColor=#0000FF;strokeWidth=1;fontFamily=Verdana;fontSize=12;" parent="1" source="7d933b09d9755ecc-32" target="7d933b09d9755ecc-15" edge="1">
          <mxGeometry relative="1" as="geometry" />
        </mxCell>
        <mxCell id="7d933b09d9755ecc-40" style="edgeStyle=none;rounded=0;html=1;exitX=0;exitY=0.5;labelBackgroundColor=none;startFill=0;endArrow=block;endFill=1;strokeColor=#0000FF;strokeWidth=1;fontFamily=Verdana;fontSize=12;" parent="1" source="7d933b09d9755ecc-36" target="7d933b09d9755ecc-15" edge="1">
          <mxGeometry relative="1" as="geometry" />
        </mxCell>
        <mxCell id="7d933b09d9755ecc-41" value="Trust relationship" style="html=1;exitX=1;exitY=0.5;labelBackgroundColor=none;startFill=0;endArrow=block;endFill=1;strokeColor=#FF0000;strokeWidth=1;fontFamily=Verdana;fontSize=12;entryX=1;entryY=0.5;curved=1;" parent="1" source="7d933b09d9755ecc-14" target="7d933b09d9755ecc-31" edge="1">
          <mxGeometry x="0.0622" relative="1" as="geometry">
            <mxPoint x="660" y="490" as="targetPoint" />
            <Array as="points">
              <mxPoint x="890" y="270" />
            </Array>
            <mxPoint as="offset" />
          </mxGeometry>
        </mxCell>
        <mxCell id="7d933b09d9755ecc-42" value="Trust relationship" style="html=1;exitX=1;exitY=0.5;entryX=1;entryY=0.5;labelBackgroundColor=none;startFill=0;endArrow=block;endFill=1;strokeColor=#FF0000;strokeWidth=1;fontFamily=Verdana;fontSize=12;curved=1;" parent="1" source="7d933b09d9755ecc-14" target="7d933b09d9755ecc-35" edge="1">
          <mxGeometry x="0.3227" y="10" relative="1" as="geometry">
            <Array as="points">
              <mxPoint x="1380" y="290" />
            </Array>
            <mxPoint as="offset" />
          </mxGeometry>
        </mxCell>
        <mxCell id="7d933b09d9755ecc-43" value="Synchronization" style="edgeStyle=none;rounded=0;html=1;entryX=0.653;entryY=0.304;entryPerimeter=0;labelBackgroundColor=none;startFill=0;endArrow=block;endFill=1;strokeWidth=1;fontFamily=Verdana;fontSize=12;" parent="1" source="7d933b09d9755ecc-4" target="7d933b09d9755ecc-35" edge="1">
          <mxGeometry relative="1" as="geometry" />
        </mxCell>
        <mxCell id="7d933b09d9755ecc-44" value="Synchronization" style="edgeStyle=none;rounded=0;html=1;entryX=0.544;entryY=0.766;entryPerimeter=0;labelBackgroundColor=none;startFill=0;endArrow=block;endFill=1;strokeWidth=1;fontFamily=Verdana;fontSize=12;" parent="1" source="7d933b09d9755ecc-4" target="7d933b09d9755ecc-31" edge="1">
          <mxGeometry x="-0.1797" y="19" relative="1" as="geometry">
            <mxPoint as="offset" />
          </mxGeometry>
        </mxCell>
      </root>
    </mxGraphModel>
  </diagram>
  <diagram id="QAb2rs209SS3XoCZNffH" name="Page-2">
    <mxGraphModel dx="1417" dy="520" grid="1" gridSize="10" guides="1" tooltips="1" connect="1" arrows="1" fold="1" page="1" pageScale="1" pageWidth="827" pageHeight="1169" math="0" shadow="0">
      <root>
        <mxCell id="NK96kK6ZexJCDKCEKkFz-0" />
        <mxCell id="NK96kK6ZexJCDKCEKkFz-1" parent="NK96kK6ZexJCDKCEKkFz-0" />
        <mxCell id="NK96kK6ZexJCDKCEKkFz-2" value="" style="shape=document;whiteSpace=wrap;html=1;boundedLbl=1;" vertex="1" parent="NK96kK6ZexJCDKCEKkFz-1">
          <mxGeometry x="280" y="800" width="120" height="80" as="geometry" />
        </mxCell>
        <mxCell id="NK96kK6ZexJCDKCEKkFz-3" value="" style="shape=document;whiteSpace=wrap;html=1;boundedLbl=1;" vertex="1" parent="NK96kK6ZexJCDKCEKkFz-1">
          <mxGeometry x="280" y="800" width="120" height="80" as="geometry" />
        </mxCell>
        <mxCell id="NK96kK6ZexJCDKCEKkFz-4" value="" style="shape=document;whiteSpace=wrap;html=1;boundedLbl=1;" vertex="1" parent="NK96kK6ZexJCDKCEKkFz-1">
          <mxGeometry x="280" y="800" width="120" height="80" as="geometry" />
        </mxCell>
        <mxCell id="NK96kK6ZexJCDKCEKkFz-5" value="" style="shape=document;whiteSpace=wrap;html=1;boundedLbl=1;fillColor=#dae8fc;strokeColor=#6c8ebf;" vertex="1" parent="NK96kK6ZexJCDKCEKkFz-1">
          <mxGeometry x="280" y="800" width="120" height="80" as="geometry" />
        </mxCell>
        <mxCell id="NK96kK6ZexJCDKCEKkFz-6" value="" style="shape=document;whiteSpace=wrap;html=1;boundedLbl=1;" vertex="1" parent="NK96kK6ZexJCDKCEKkFz-1">
          <mxGeometry x="280" y="800" width="120" height="80" as="geometry" />
        </mxCell>
        <mxCell id="NK96kK6ZexJCDKCEKkFz-7" value="" style="shape=document;whiteSpace=wrap;html=1;boundedLbl=1;fillColor=#dae8fc;strokeColor=#6c8ebf;" vertex="1" parent="NK96kK6ZexJCDKCEKkFz-1">
          <mxGeometry x="280" y="800" width="120" height="80" as="geometry" />
        </mxCell>
        <mxCell id="NK96kK6ZexJCDKCEKkFz-98" style="edgeStyle=orthogonalEdgeStyle;sketch=0;orthogonalLoop=1;jettySize=auto;html=1;" edge="1" parent="NK96kK6ZexJCDKCEKkFz-1">
          <mxGeometry relative="1" as="geometry">
            <mxPoint x="330" y="750" as="targetPoint" />
            <mxPoint x="330" y="800" as="sourcePoint" />
          </mxGeometry>
        </mxCell>
        <mxCell id="NK96kK6ZexJCDKCEKkFz-8" value="" style="shape=document;whiteSpace=wrap;html=1;boundedLbl=1;fillColor=#dae8fc;strokeColor=#6c8ebf;" vertex="1" parent="NK96kK6ZexJCDKCEKkFz-1">
          <mxGeometry x="270" y="810" width="120" height="80" as="geometry" />
        </mxCell>
        <mxCell id="NK96kK6ZexJCDKCEKkFz-9" value="" style="shape=document;whiteSpace=wrap;html=1;boundedLbl=1;fillColor=#dae8fc;strokeColor=#6c8ebf;" vertex="1" parent="NK96kK6ZexJCDKCEKkFz-1">
          <mxGeometry x="260" y="820" width="120" height="80" as="geometry" />
        </mxCell>
        <mxCell id="NK96kK6ZexJCDKCEKkFz-10" value="&lt;b&gt;&lt;font style=&quot;font-size: 14px&quot;&gt;Input&lt;/font&gt;&amp;nbsp;&lt;font style=&quot;font-size: 14px&quot;&gt;Do&lt;/font&gt;&lt;font style=&quot;font-size: 14px&quot;&gt;cument&lt;/font&gt;&lt;/b&gt;" style="text;html=1;resizable=0;autosize=1;align=center;verticalAlign=middle;points=[];fillColor=none;strokeColor=none;" vertex="1" parent="NK96kK6ZexJCDKCEKkFz-1">
          <mxGeometry x="260" y="840" width="120" height="20" as="geometry" />
        </mxCell>
        <mxCell id="NK96kK6ZexJCDKCEKkFz-101" style="edgeStyle=orthogonalEdgeStyle;sketch=0;orthogonalLoop=1;jettySize=auto;html=1;" edge="1" parent="NK96kK6ZexJCDKCEKkFz-1" source="NK96kK6ZexJCDKCEKkFz-21">
          <mxGeometry relative="1" as="geometry">
            <mxPoint x="558" y="750" as="targetPoint" />
          </mxGeometry>
        </mxCell>
        <mxCell id="NK96kK6ZexJCDKCEKkFz-21" value="" style="shape=document;whiteSpace=wrap;html=1;boundedLbl=1;fillColor=#ffe6cc;strokeColor=#d79b00;" vertex="1" parent="NK96kK6ZexJCDKCEKkFz-1">
          <mxGeometry x="498" y="800" width="120" height="30" as="geometry" />
        </mxCell>
        <mxCell id="NK96kK6ZexJCDKCEKkFz-22" value="" style="shape=document;whiteSpace=wrap;html=1;boundedLbl=1;fillColor=#ffe6cc;strokeColor=#d79b00;" vertex="1" parent="NK96kK6ZexJCDKCEKkFz-1">
          <mxGeometry x="508" y="810" width="120" height="30" as="geometry" />
        </mxCell>
        <mxCell id="NK96kK6ZexJCDKCEKkFz-23" value="" style="shape=document;whiteSpace=wrap;html=1;boundedLbl=1;fillColor=#ffe6cc;strokeColor=#d79b00;" vertex="1" parent="NK96kK6ZexJCDKCEKkFz-1">
          <mxGeometry x="518" y="820" width="120" height="30" as="geometry" />
        </mxCell>
        <mxCell id="NK96kK6ZexJCDKCEKkFz-24" value="&lt;font style=&quot;font-size: 14px&quot;&gt;&lt;b&gt;Target Summary&lt;/b&gt;&lt;/font&gt;" style="text;html=1;resizable=0;autosize=1;align=center;verticalAlign=middle;points=[];fillColor=none;strokeColor=none;" vertex="1" parent="NK96kK6ZexJCDKCEKkFz-1">
          <mxGeometry x="513" y="820" width="130" height="20" as="geometry" />
        </mxCell>
        <mxCell id="NK96kK6ZexJCDKCEKkFz-57" style="edgeStyle=orthogonalEdgeStyle;orthogonalLoop=1;jettySize=auto;html=1;entryX=1;entryY=0.6;entryDx=0;entryDy=0;entryPerimeter=0;" edge="1" parent="NK96kK6ZexJCDKCEKkFz-1" source="NK96kK6ZexJCDKCEKkFz-33" target="NK96kK6ZexJCDKCEKkFz-40">
          <mxGeometry relative="1" as="geometry">
            <Array as="points">
              <mxPoint x="579" y="1000" />
            </Array>
          </mxGeometry>
        </mxCell>
        <mxCell id="NK96kK6ZexJCDKCEKkFz-33" value="" style="shape=document;whiteSpace=wrap;html=1;boundedLbl=1;size=0.3333333333333333;fillColor=#ffe6cc;strokeColor=#d79b00;" vertex="1" parent="NK96kK6ZexJCDKCEKkFz-1">
          <mxGeometry x="498" y="965" width="161" height="30" as="geometry" />
        </mxCell>
        <mxCell id="NK96kK6ZexJCDKCEKkFz-37" value="" style="shape=document;whiteSpace=wrap;html=1;boundedLbl=1;size=0.3333333333333333;fillColor=#ffe6cc;strokeColor=#d79b00;" vertex="1" parent="NK96kK6ZexJCDKCEKkFz-1">
          <mxGeometry x="508" y="975" width="161" height="30" as="geometry" />
        </mxCell>
        <mxCell id="NK96kK6ZexJCDKCEKkFz-38" value="" style="shape=document;whiteSpace=wrap;html=1;boundedLbl=1;size=0.3333333333333333;fillColor=#ffe6cc;strokeColor=#d79b00;" vertex="1" parent="NK96kK6ZexJCDKCEKkFz-1">
          <mxGeometry x="518" y="985" width="161" height="30" as="geometry" />
        </mxCell>
        <mxCell id="NK96kK6ZexJCDKCEKkFz-39" value="&lt;b&gt;&lt;font style=&quot;font-size: 14px&quot;&gt;Candidate Summary&lt;/font&gt;&lt;/b&gt;" style="text;html=1;resizable=0;autosize=1;align=center;verticalAlign=middle;points=[];fillColor=none;strokeColor=none;" vertex="1" parent="NK96kK6ZexJCDKCEKkFz-1">
          <mxGeometry x="523.5" y="985" width="150" height="20" as="geometry" />
        </mxCell>
        <mxCell id="NK96kK6ZexJCDKCEKkFz-73" style="edgeStyle=orthogonalEdgeStyle;orthogonalLoop=1;jettySize=auto;html=1;entryX=0.347;entryY=0.94;entryDx=0;entryDy=0;entryPerimeter=0;" edge="1" parent="NK96kK6ZexJCDKCEKkFz-1" source="NK96kK6ZexJCDKCEKkFz-40" target="NK96kK6ZexJCDKCEKkFz-72">
          <mxGeometry relative="1" as="geometry" />
        </mxCell>
        <mxCell id="NK96kK6ZexJCDKCEKkFz-40" value="" style="ellipse;whiteSpace=wrap;html=1;aspect=fixed;fillColor=none;" vertex="1" parent="NK96kK6ZexJCDKCEKkFz-1">
          <mxGeometry x="230" y="940" width="100" height="100" as="geometry" />
        </mxCell>
        <mxCell id="NK96kK6ZexJCDKCEKkFz-42" value="" style="ellipse;whiteSpace=wrap;html=1;aspect=fixed;fillColor=#f5f5f5;strokeColor=#666666;gradientColor=#b3b3b3;" vertex="1" parent="NK96kK6ZexJCDKCEKkFz-1">
          <mxGeometry x="260" y="950" width="20" height="20" as="geometry" />
        </mxCell>
        <mxCell id="NK96kK6ZexJCDKCEKkFz-50" value="" style="ellipse;whiteSpace=wrap;html=1;aspect=fixed;fillColor=#f5f5f5;strokeColor=#666666;gradientColor=#b3b3b3;" vertex="1" parent="NK96kK6ZexJCDKCEKkFz-1">
          <mxGeometry x="250" y="980" width="20" height="20" as="geometry" />
        </mxCell>
        <mxCell id="NK96kK6ZexJCDKCEKkFz-55" value="" style="ellipse;whiteSpace=wrap;html=1;aspect=fixed;fillColor=#f5f5f5;strokeColor=#666666;gradientColor=#b3b3b3;" vertex="1" parent="NK96kK6ZexJCDKCEKkFz-1">
          <mxGeometry x="260" y="1010" width="20" height="20" as="geometry" />
        </mxCell>
        <mxCell id="NK96kK6ZexJCDKCEKkFz-61" value="" style="endArrow=none;html=1;" edge="1" parent="NK96kK6ZexJCDKCEKkFz-1">
          <mxGeometry width="50" height="50" relative="1" as="geometry">
            <mxPoint x="470" y="1000" as="sourcePoint" />
            <mxPoint x="470" y="830" as="targetPoint" />
          </mxGeometry>
        </mxCell>
        <mxCell id="NK96kK6ZexJCDKCEKkFz-63" value="" style="ellipse;whiteSpace=wrap;html=1;aspect=fixed;fillColor=#f5f5f5;strokeColor=#666666;gradientColor=#b3b3b3;" vertex="1" parent="NK96kK6ZexJCDKCEKkFz-1">
          <mxGeometry x="300" y="980" width="20" height="20" as="geometry" />
        </mxCell>
        <mxCell id="NK96kK6ZexJCDKCEKkFz-96" style="edgeStyle=orthogonalEdgeStyle;sketch=0;orthogonalLoop=1;jettySize=auto;html=1;" edge="1" parent="NK96kK6ZexJCDKCEKkFz-1" source="NK96kK6ZexJCDKCEKkFz-70">
          <mxGeometry relative="1" as="geometry">
            <mxPoint x="130" y="750" as="targetPoint" />
          </mxGeometry>
        </mxCell>
        <mxCell id="NK96kK6ZexJCDKCEKkFz-70" value="" style="shape=tape;whiteSpace=wrap;html=1;fillColor=#b0e3e6;size=0.5;strokeColor=#0e8088;" vertex="1" parent="NK96kK6ZexJCDKCEKkFz-1">
          <mxGeometry x="80" y="800" width="100" height="40" as="geometry" />
        </mxCell>
        <mxCell id="NK96kK6ZexJCDKCEKkFz-71" value="" style="shape=tape;whiteSpace=wrap;html=1;fillColor=#b0e3e6;size=0.5;strokeColor=#0e8088;" vertex="1" parent="NK96kK6ZexJCDKCEKkFz-1">
          <mxGeometry x="90" y="810" width="100" height="40" as="geometry" />
        </mxCell>
        <mxCell id="NK96kK6ZexJCDKCEKkFz-72" value="" style="shape=tape;whiteSpace=wrap;html=1;fillColor=#b0e3e6;size=0.5;strokeColor=#0e8088;" vertex="1" parent="NK96kK6ZexJCDKCEKkFz-1">
          <mxGeometry x="100" y="820" width="100" height="40" as="geometry" />
        </mxCell>
        <mxCell id="NK96kK6ZexJCDKCEKkFz-74" value="" style="endArrow=none;html=1;" edge="1" parent="NK96kK6ZexJCDKCEKkFz-1" source="NK96kK6ZexJCDKCEKkFz-24">
          <mxGeometry width="50" height="50" relative="1" as="geometry">
            <mxPoint x="440" y="920" as="sourcePoint" />
            <mxPoint x="470" y="830" as="targetPoint" />
          </mxGeometry>
        </mxCell>
        <mxCell id="NK96kK6ZexJCDKCEKkFz-75" value="&lt;font style=&quot;font-size: 14px&quot;&gt;&lt;b&gt;Query&lt;/b&gt;&lt;/font&gt;" style="text;html=1;resizable=0;autosize=1;align=center;verticalAlign=middle;points=[];fillColor=none;strokeColor=none;" vertex="1" parent="NK96kK6ZexJCDKCEKkFz-1">
          <mxGeometry x="100" y="840" width="60" height="20" as="geometry" />
        </mxCell>
        <mxCell id="NK96kK6ZexJCDKCEKkFz-79" value="&lt;b&gt;&lt;font style=&quot;font-size: 14px&quot;&gt;Template&lt;/font&gt;&lt;/b&gt;" style="text;html=1;resizable=0;autosize=1;align=center;verticalAlign=middle;points=[];fillColor=none;strokeColor=none;" vertex="1" parent="NK96kK6ZexJCDKCEKkFz-1">
          <mxGeometry x="140" y="965" width="80" height="20" as="geometry" />
        </mxCell>
        <mxCell id="NK96kK6ZexJCDKCEKkFz-82" value="" style="endArrow=classic;html=1;" edge="1" parent="NK96kK6ZexJCDKCEKkFz-1">
          <mxGeometry width="50" height="50" relative="1" as="geometry">
            <mxPoint x="470" y="940" as="sourcePoint" />
            <mxPoint x="470" y="990" as="targetPoint" />
          </mxGeometry>
        </mxCell>
        <mxCell id="NK96kK6ZexJCDKCEKkFz-196" style="edgeStyle=orthogonalEdgeStyle;rounded=0;orthogonalLoop=1;jettySize=auto;html=1;exitX=0.25;exitY=0;exitDx=0;exitDy=0;" edge="1" parent="NK96kK6ZexJCDKCEKkFz-1" source="NK96kK6ZexJCDKCEKkFz-87">
          <mxGeometry relative="1" as="geometry">
            <mxPoint x="202" y="610" as="targetPoint" />
            <Array as="points">
              <mxPoint x="203" y="635" />
            </Array>
          </mxGeometry>
        </mxCell>
        <mxCell id="NK96kK6ZexJCDKCEKkFz-87" value="" style="whiteSpace=wrap;html=1;sketch=0;gradientColor=#7ea6e0;fillColor=#dae8fc;strokeColor=#6c8ebf;" vertex="1" parent="NK96kK6ZexJCDKCEKkFz-1">
          <mxGeometry x="40" y="660" width="650" height="85" as="geometry" />
        </mxCell>
        <mxCell id="NK96kK6ZexJCDKCEKkFz-95" value="&lt;font style=&quot;font-size: 24px&quot;&gt;&lt;b&gt;Shared Dual Input Encoder&lt;/b&gt;&lt;/font&gt;" style="text;html=1;resizable=0;autosize=1;align=center;verticalAlign=middle;points=[];fillColor=none;strokeColor=none;sketch=0;" vertex="1" parent="NK96kK6ZexJCDKCEKkFz-1">
          <mxGeometry x="208" y="692.5" width="320" height="20" as="geometry" />
        </mxCell>
        <mxCell id="NK96kK6ZexJCDKCEKkFz-99" value="" style="whiteSpace=wrap;html=1;sketch=0;gradientColor=#7ea6e0;fillColor=#dae8fc;strokeColor=#6c8ebf;" vertex="1" parent="NK96kK6ZexJCDKCEKkFz-1">
          <mxGeometry x="447.25" y="520" width="232.75" height="80" as="geometry" />
        </mxCell>
        <mxCell id="NK96kK6ZexJCDKCEKkFz-100" value="&lt;font style=&quot;font-size: 24px&quot;&gt;&lt;b&gt;Summarization&lt;br&gt;Decoder&lt;/b&gt;&lt;/font&gt;" style="text;html=1;resizable=0;autosize=1;align=center;verticalAlign=middle;points=[];fillColor=none;strokeColor=none;sketch=0;" vertex="1" parent="NK96kK6ZexJCDKCEKkFz-1">
          <mxGeometry x="458" y="550" width="190" height="40" as="geometry" />
        </mxCell>
        <mxCell id="NK96kK6ZexJCDKCEKkFz-104" value="" style="whiteSpace=wrap;html=1;dashed=1;sketch=0;fillColor=none;" vertex="1" parent="NK96kK6ZexJCDKCEKkFz-1">
          <mxGeometry x="50" y="790" width="650" height="300" as="geometry" />
        </mxCell>
        <mxCell id="NK96kK6ZexJCDKCEKkFz-107" value="&lt;font style=&quot;font-size: 14px&quot; color=&quot;#3333ff&quot;&gt;&lt;b&gt;Data Construction&lt;/b&gt;&lt;/font&gt;" style="text;html=1;resizable=0;autosize=1;align=center;verticalAlign=middle;points=[];fillColor=none;strokeColor=none;dashed=1;sketch=0;" vertex="1" parent="NK96kK6ZexJCDKCEKkFz-1">
          <mxGeometry x="40" y="1050" width="140" height="20" as="geometry" />
        </mxCell>
        <mxCell id="NK96kK6ZexJCDKCEKkFz-118" value="" style="whiteSpace=wrap;html=1;sketch=0;fillColor=#ffffff;" vertex="1" parent="NK96kK6ZexJCDKCEKkFz-1">
          <mxGeometry x="449.75" y="420" width="230.25" height="70" as="geometry" />
        </mxCell>
        <mxCell id="NK96kK6ZexJCDKCEKkFz-122" style="edgeStyle=orthogonalEdgeStyle;sketch=0;orthogonalLoop=1;jettySize=auto;html=1;exitX=1;exitY=0.5;exitDx=0;exitDy=0;" edge="1" parent="NK96kK6ZexJCDKCEKkFz-1" source="NK96kK6ZexJCDKCEKkFz-119" target="NK96kK6ZexJCDKCEKkFz-120">
          <mxGeometry relative="1" as="geometry" />
        </mxCell>
        <mxCell id="NK96kK6ZexJCDKCEKkFz-166" style="edgeStyle=orthogonalEdgeStyle;curved=1;rounded=1;orthogonalLoop=1;jettySize=auto;html=1;exitX=0.5;exitY=1;exitDx=0;exitDy=0;entryX=0.25;entryY=0.038;entryDx=0;entryDy=0;entryPerimeter=0;dashed=1;" edge="1" parent="NK96kK6ZexJCDKCEKkFz-1" source="NK96kK6ZexJCDKCEKkFz-119" target="NK96kK6ZexJCDKCEKkFz-127">
          <mxGeometry relative="1" as="geometry" />
        </mxCell>
        <mxCell id="NK96kK6ZexJCDKCEKkFz-119" value="" style="whiteSpace=wrap;html=1;sketch=0;fillColor=#ffffff;" vertex="1" parent="NK96kK6ZexJCDKCEKkFz-1">
          <mxGeometry x="477.25" y="430" width="30" height="20" as="geometry" />
        </mxCell>
        <mxCell id="NK96kK6ZexJCDKCEKkFz-125" style="edgeStyle=orthogonalEdgeStyle;sketch=0;orthogonalLoop=1;jettySize=auto;html=1;exitX=1;exitY=0.5;exitDx=0;exitDy=0;entryX=0;entryY=0.5;entryDx=0;entryDy=0;" edge="1" parent="NK96kK6ZexJCDKCEKkFz-1" source="NK96kK6ZexJCDKCEKkFz-120" target="NK96kK6ZexJCDKCEKkFz-121">
          <mxGeometry relative="1" as="geometry" />
        </mxCell>
        <mxCell id="NK96kK6ZexJCDKCEKkFz-160" style="edgeStyle=orthogonalEdgeStyle;sketch=0;orthogonalLoop=1;jettySize=auto;html=1;exitX=0.75;exitY=1;exitDx=0;exitDy=0;entryX=0.486;entryY=-0.076;entryDx=0;entryDy=0;entryPerimeter=0;dashed=1;" edge="1" parent="NK96kK6ZexJCDKCEKkFz-1" source="NK96kK6ZexJCDKCEKkFz-120" target="NK96kK6ZexJCDKCEKkFz-128">
          <mxGeometry relative="1" as="geometry" />
        </mxCell>
        <mxCell id="NK96kK6ZexJCDKCEKkFz-120" value="" style="whiteSpace=wrap;html=1;sketch=0;fillColor=#ffffff;" vertex="1" parent="NK96kK6ZexJCDKCEKkFz-1">
          <mxGeometry x="532.25" y="430" width="30" height="20" as="geometry" />
        </mxCell>
        <mxCell id="NK96kK6ZexJCDKCEKkFz-140" style="edgeStyle=orthogonalEdgeStyle;sketch=0;orthogonalLoop=1;jettySize=auto;html=1;entryX=-0.025;entryY=0.467;entryDx=0;entryDy=0;entryPerimeter=0;" edge="1" parent="NK96kK6ZexJCDKCEKkFz-1" source="NK96kK6ZexJCDKCEKkFz-121" target="NK96kK6ZexJCDKCEKkFz-138">
          <mxGeometry relative="1" as="geometry" />
        </mxCell>
        <mxCell id="NK96kK6ZexJCDKCEKkFz-165" style="edgeStyle=orthogonalEdgeStyle;curved=1;rounded=1;orthogonalLoop=1;jettySize=auto;html=1;exitX=0.75;exitY=1;exitDx=0;exitDy=0;entryX=0.114;entryY=0;entryDx=0;entryDy=0;entryPerimeter=0;dashed=1;" edge="1" parent="NK96kK6ZexJCDKCEKkFz-1" source="NK96kK6ZexJCDKCEKkFz-121" target="NK96kK6ZexJCDKCEKkFz-129">
          <mxGeometry relative="1" as="geometry" />
        </mxCell>
        <mxCell id="NK96kK6ZexJCDKCEKkFz-121" value="" style="whiteSpace=wrap;html=1;sketch=0;fillColor=#ffffff;" vertex="1" parent="NK96kK6ZexJCDKCEKkFz-1">
          <mxGeometry x="587.25" y="430" width="30" height="20" as="geometry" />
        </mxCell>
        <mxCell id="NK96kK6ZexJCDKCEKkFz-144" style="edgeStyle=orthogonalEdgeStyle;sketch=0;orthogonalLoop=1;jettySize=auto;html=1;entryX=0.25;entryY=1;entryDx=0;entryDy=0;" edge="1" parent="NK96kK6ZexJCDKCEKkFz-1" source="NK96kK6ZexJCDKCEKkFz-127" target="NK96kK6ZexJCDKCEKkFz-120">
          <mxGeometry relative="1" as="geometry" />
        </mxCell>
        <mxCell id="NK96kK6ZexJCDKCEKkFz-127" value="&lt;b&gt;A&lt;/b&gt;" style="text;html=1;resizable=0;autosize=1;align=center;verticalAlign=middle;points=[];fillColor=none;strokeColor=none;sketch=0;" vertex="1" parent="NK96kK6ZexJCDKCEKkFz-1">
          <mxGeometry x="487.25" y="470" width="20" height="20" as="geometry" />
        </mxCell>
        <mxCell id="NK96kK6ZexJCDKCEKkFz-158" style="edgeStyle=orthogonalEdgeStyle;sketch=0;orthogonalLoop=1;jettySize=auto;html=1;entryX=0.25;entryY=1;entryDx=0;entryDy=0;" edge="1" parent="NK96kK6ZexJCDKCEKkFz-1" source="NK96kK6ZexJCDKCEKkFz-128" target="NK96kK6ZexJCDKCEKkFz-121">
          <mxGeometry relative="1" as="geometry" />
        </mxCell>
        <mxCell id="NK96kK6ZexJCDKCEKkFz-128" value="&lt;b&gt;golf&lt;/b&gt;" style="text;html=1;resizable=0;autosize=1;align=center;verticalAlign=middle;points=[];fillColor=none;strokeColor=none;sketch=0;" vertex="1" parent="NK96kK6ZexJCDKCEKkFz-1">
          <mxGeometry x="532.25" y="470" width="40" height="20" as="geometry" />
        </mxCell>
        <mxCell id="NK96kK6ZexJCDKCEKkFz-129" value="&lt;b&gt;commany&lt;/b&gt;" style="text;html=1;resizable=0;autosize=1;align=center;verticalAlign=middle;points=[];fillColor=none;strokeColor=none;sketch=0;" vertex="1" parent="NK96kK6ZexJCDKCEKkFz-1">
          <mxGeometry x="602.25" y="470" width="70" height="20" as="geometry" />
        </mxCell>
        <mxCell id="NK96kK6ZexJCDKCEKkFz-138" value="&lt;b&gt;&lt;font style=&quot;font-size: 18px&quot;&gt;...&lt;/font&gt;&lt;/b&gt;" style="text;html=1;resizable=0;autosize=1;align=center;verticalAlign=middle;points=[];fillColor=none;strokeColor=none;sketch=0;" vertex="1" parent="NK96kK6ZexJCDKCEKkFz-1">
          <mxGeometry x="652.25" y="430" width="30" height="20" as="geometry" />
        </mxCell>
        <mxCell id="NK96kK6ZexJCDKCEKkFz-153" value="" style="whiteSpace=wrap;html=1;sketch=0;gradientColor=#7ea6e0;fillColor=#dae8fc;strokeColor=#6c8ebf;" vertex="1" parent="NK96kK6ZexJCDKCEKkFz-1">
          <mxGeometry x="74.25" y="520" width="265.75" height="80" as="geometry" />
        </mxCell>
        <mxCell id="NK96kK6ZexJCDKCEKkFz-154" value="&lt;font style=&quot;font-size: 24px&quot;&gt;&lt;b&gt;Question &lt;br&gt;Answering Layer&lt;/b&gt;&lt;/font&gt;" style="text;html=1;resizable=0;autosize=1;align=center;verticalAlign=middle;points=[];fillColor=none;strokeColor=none;sketch=0;" vertex="1" parent="NK96kK6ZexJCDKCEKkFz-1">
          <mxGeometry x="102.12" y="540" width="210" height="40" as="geometry" />
        </mxCell>
        <mxCell id="NK96kK6ZexJCDKCEKkFz-157" value="" style="whiteSpace=wrap;html=1;sketch=0;fillColor=none;" vertex="1" parent="NK96kK6ZexJCDKCEKkFz-1">
          <mxGeometry x="150" y="420" width="170" height="65" as="geometry" />
        </mxCell>
        <mxCell id="NK96kK6ZexJCDKCEKkFz-171" style="edgeStyle=orthogonalEdgeStyle;rounded=0;orthogonalLoop=1;jettySize=auto;html=1;entryX=0;entryY=0.5;entryDx=0;entryDy=0;dashed=1;" edge="1" parent="NK96kK6ZexJCDKCEKkFz-1" source="NK96kK6ZexJCDKCEKkFz-167" target="NK96kK6ZexJCDKCEKkFz-119">
          <mxGeometry relative="1" as="geometry" />
        </mxCell>
        <mxCell id="NK96kK6ZexJCDKCEKkFz-167" value="&lt;font style=&quot;font-size: 12px&quot;&gt;&lt;b&gt;BOS&lt;/b&gt;&lt;/font&gt;" style="text;html=1;resizable=0;autosize=1;align=center;verticalAlign=middle;points=[];fillColor=none;strokeColor=none;rounded=0;" vertex="1" parent="NK96kK6ZexJCDKCEKkFz-1">
          <mxGeometry x="447.25" y="470" width="40" height="20" as="geometry" />
        </mxCell>
        <mxCell id="NK96kK6ZexJCDKCEKkFz-172" value="" style="rounded=0;whiteSpace=wrap;html=1;fillColor=#ffffff;" vertex="1" parent="NK96kK6ZexJCDKCEKkFz-1">
          <mxGeometry x="165" y="440" width="25" height="20" as="geometry" />
        </mxCell>
        <mxCell id="NK96kK6ZexJCDKCEKkFz-175" value="" style="rounded=0;whiteSpace=wrap;html=1;fillColor=#ffffff;" vertex="1" parent="NK96kK6ZexJCDKCEKkFz-1">
          <mxGeometry x="200" y="440" width="25" height="20" as="geometry" />
        </mxCell>
        <mxCell id="NK96kK6ZexJCDKCEKkFz-176" value="" style="rounded=0;whiteSpace=wrap;html=1;fillColor=#ffffff;" vertex="1" parent="NK96kK6ZexJCDKCEKkFz-1">
          <mxGeometry x="235" y="440" width="25" height="20" as="geometry" />
        </mxCell>
        <mxCell id="NK96kK6ZexJCDKCEKkFz-177" value="" style="rounded=0;whiteSpace=wrap;html=1;fillColor=#ffffff;" vertex="1" parent="NK96kK6ZexJCDKCEKkFz-1">
          <mxGeometry x="275" y="440" width="25" height="20" as="geometry" />
        </mxCell>
        <mxCell id="NK96kK6ZexJCDKCEKkFz-182" value="" style="endArrow=classic;html=1;" edge="1" parent="NK96kK6ZexJCDKCEKkFz-1">
          <mxGeometry width="50" height="50" relative="1" as="geometry">
            <mxPoint x="212" y="519" as="sourcePoint" />
            <mxPoint x="212" y="480" as="targetPoint" />
          </mxGeometry>
        </mxCell>
        <mxCell id="NK96kK6ZexJCDKCEKkFz-185" value="" style="endArrow=classic;html=1;" edge="1" parent="NK96kK6ZexJCDKCEKkFz-1">
          <mxGeometry width="50" height="50" relative="1" as="geometry">
            <mxPoint x="247" y="519" as="sourcePoint" />
            <mxPoint x="247" y="480" as="targetPoint" />
          </mxGeometry>
        </mxCell>
        <mxCell id="NK96kK6ZexJCDKCEKkFz-186" value="&lt;b&gt;Answer start&lt;/b&gt;" style="text;html=1;resizable=0;autosize=1;align=center;verticalAlign=middle;points=[];fillColor=none;strokeColor=none;rounded=0;" vertex="1" parent="NK96kK6ZexJCDKCEKkFz-1">
          <mxGeometry x="118" y="490" width="90" height="20" as="geometry" />
        </mxCell>
        <mxCell id="NK96kK6ZexJCDKCEKkFz-187" value="&lt;b&gt;Answer end&lt;/b&gt;" style="text;html=1;resizable=0;autosize=1;align=center;verticalAlign=middle;points=[];fillColor=none;strokeColor=none;rounded=0;" vertex="1" parent="NK96kK6ZexJCDKCEKkFz-1">
          <mxGeometry x="250" y="490" width="80" height="20" as="geometry" />
        </mxCell>
        <mxCell id="NK96kK6ZexJCDKCEKkFz-191" value="&lt;b&gt;Dale&lt;/b&gt;" style="text;html=1;resizable=0;autosize=1;align=center;verticalAlign=middle;points=[];fillColor=none;strokeColor=none;rounded=0;" vertex="1" parent="NK96kK6ZexJCDKCEKkFz-1">
          <mxGeometry x="192.5" y="460" width="40" height="20" as="geometry" />
        </mxCell>
        <mxCell id="NK96kK6ZexJCDKCEKkFz-192" value="&lt;b&gt;Pike&lt;/b&gt;" style="text;html=1;resizable=0;autosize=1;align=center;verticalAlign=middle;points=[];fillColor=none;strokeColor=none;rounded=0;" vertex="1" parent="NK96kK6ZexJCDKCEKkFz-1">
          <mxGeometry x="230" y="460" width="40" height="20" as="geometry" />
        </mxCell>
        <mxCell id="NK96kK6ZexJCDKCEKkFz-193" value="&lt;b&gt;c&#39;&lt;/b&gt;" style="text;html=1;resizable=0;autosize=1;align=center;verticalAlign=middle;points=[];fillColor=none;strokeColor=none;rounded=0;" vertex="1" parent="NK96kK6ZexJCDKCEKkFz-1">
          <mxGeometry x="275" y="460" width="30" height="20" as="geometry" />
        </mxCell>
        <mxCell id="NK96kK6ZexJCDKCEKkFz-195" value="&lt;b&gt;c&lt;/b&gt;" style="text;html=1;resizable=0;autosize=1;align=center;verticalAlign=middle;points=[];fillColor=none;strokeColor=none;rounded=0;" vertex="1" parent="NK96kK6ZexJCDKCEKkFz-1">
          <mxGeometry x="165" y="460" width="20" height="20" as="geometry" />
        </mxCell>
        <mxCell id="NK96kK6ZexJCDKCEKkFz-198" style="edgeStyle=orthogonalEdgeStyle;rounded=0;orthogonalLoop=1;jettySize=auto;html=1;exitX=0.25;exitY=0;exitDx=0;exitDy=0;" edge="1" parent="NK96kK6ZexJCDKCEKkFz-1">
          <mxGeometry relative="1" as="geometry">
            <mxPoint x="564.38" y="610" as="targetPoint" />
            <mxPoint x="564.8799999999998" y="660" as="sourcePoint" />
            <Array as="points">
              <mxPoint x="565.38" y="635" />
            </Array>
          </mxGeometry>
        </mxCell>
        <mxCell id="NK96kK6ZexJCDKCEKkFz-199" value="" style="rounded=0;whiteSpace=wrap;html=1;fillColor=none;dashed=1;" vertex="1" parent="NK96kK6ZexJCDKCEKkFz-1">
          <mxGeometry x="40" y="380" width="340" height="250" as="geometry" />
        </mxCell>
        <mxCell id="NK96kK6ZexJCDKCEKkFz-200" value="&lt;b&gt;&lt;font color=&quot;#3333ff&quot;&gt;Q&amp;amp;A Module&lt;/font&gt;&lt;/b&gt;" style="text;html=1;resizable=0;autosize=1;align=center;verticalAlign=middle;points=[];fillColor=none;strokeColor=none;rounded=0;dashed=1;" vertex="1" parent="NK96kK6ZexJCDKCEKkFz-1">
          <mxGeometry x="30" y="380" width="90" height="20" as="geometry" />
        </mxCell>
        <mxCell id="NK96kK6ZexJCDKCEKkFz-201" value="" style="rounded=0;whiteSpace=wrap;html=1;dashed=1;fillColor=none;" vertex="1" parent="NK96kK6ZexJCDKCEKkFz-1">
          <mxGeometry x="430" y="380" width="260" height="250" as="geometry" />
        </mxCell>
        <mxCell id="NK96kK6ZexJCDKCEKkFz-203" value="&lt;b&gt;&lt;font color=&quot;#3333ff&quot;&gt;Summarization&amp;nbsp; Module&lt;/font&gt;&lt;/b&gt;" style="text;html=1;resizable=0;autosize=1;align=center;verticalAlign=middle;points=[];fillColor=none;strokeColor=none;rounded=0;dashed=1;" vertex="1" parent="NK96kK6ZexJCDKCEKkFz-1">
          <mxGeometry x="422.25" y="380" width="150" height="20" as="geometry" />
        </mxCell>
        <mxCell id="NK96kK6ZexJCDKCEKkFz-206" value="" style="endArrow=classic;html=1;entryX=0.5;entryY=0.44;entryDx=0;entryDy=0;entryPerimeter=0;exitX=0.5;exitY=0.56;exitDx=0;exitDy=0;exitPerimeter=0;" edge="1" parent="NK96kK6ZexJCDKCEKkFz-1" source="NK96kK6ZexJCDKCEKkFz-201" target="NK96kK6ZexJCDKCEKkFz-201">
          <mxGeometry width="50" height="50" relative="1" as="geometry">
            <mxPoint x="410" y="530" as="sourcePoint" />
            <mxPoint x="420" y="440" as="targetPoint" />
          </mxGeometry>
        </mxCell>
        <mxCell id="NK96kK6ZexJCDKCEKkFz-207" value="" style="rounded=0;whiteSpace=wrap;html=1;fillColor=#b0e3e6;strokeColor=#0e8088;" vertex="1" parent="NK96kK6ZexJCDKCEKkFz-1">
          <mxGeometry x="200" y="270" width="12.5" height="50" as="geometry" />
        </mxCell>
        <mxCell id="NK96kK6ZexJCDKCEKkFz-209" value="" style="rounded=0;whiteSpace=wrap;html=1;fillColor=#b0e3e6;strokeColor=#0e8088;" vertex="1" parent="NK96kK6ZexJCDKCEKkFz-1">
          <mxGeometry x="165" y="270" width="12.5" height="50" as="geometry" />
        </mxCell>
        <mxCell id="NK96kK6ZexJCDKCEKkFz-210" value="" style="rounded=0;whiteSpace=wrap;html=1;fillColor=#b0e3e6;strokeColor=#0e8088;" vertex="1" parent="NK96kK6ZexJCDKCEKkFz-1">
          <mxGeometry x="235" y="270" width="12.5" height="50" as="geometry" />
        </mxCell>
        <mxCell id="NK96kK6ZexJCDKCEKkFz-211" value="" style="rounded=0;whiteSpace=wrap;html=1;fillColor=#b0e3e6;strokeColor=#0e8088;" vertex="1" parent="NK96kK6ZexJCDKCEKkFz-1">
          <mxGeometry x="275" y="270" width="12.5" height="50" as="geometry" />
        </mxCell>
        <mxCell id="NK96kK6ZexJCDKCEKkFz-217" value="" style="rounded=0;whiteSpace=wrap;html=1;fillColor=#b0e3e6;strokeColor=#0e8088;" vertex="1" parent="NK96kK6ZexJCDKCEKkFz-1">
          <mxGeometry x="538.25" y="270" width="12.5" height="50" as="geometry" />
        </mxCell>
        <mxCell id="NK96kK6ZexJCDKCEKkFz-218" value="" style="rounded=0;whiteSpace=wrap;html=1;fillColor=#b0e3e6;strokeColor=#0e8088;" vertex="1" parent="NK96kK6ZexJCDKCEKkFz-1">
          <mxGeometry x="590.5" y="270" width="12.5" height="50" as="geometry" />
        </mxCell>
        <mxCell id="NK96kK6ZexJCDKCEKkFz-219" value="" style="rounded=0;whiteSpace=wrap;html=1;fillColor=#b0e3e6;strokeColor=#0e8088;" vertex="1" parent="NK96kK6ZexJCDKCEKkFz-1">
          <mxGeometry x="488" y="270" width="12.5" height="50" as="geometry" />
        </mxCell>
        <mxCell id="NK96kK6ZexJCDKCEKkFz-231" style="edgeStyle=orthogonalEdgeStyle;rounded=1;orthogonalLoop=1;jettySize=auto;html=1;exitX=0.25;exitY=0;exitDx=0;exitDy=0;entryX=0.5;entryY=0;entryDx=0;entryDy=0;" edge="1" parent="NK96kK6ZexJCDKCEKkFz-1" source="NK96kK6ZexJCDKCEKkFz-220" target="NK96kK6ZexJCDKCEKkFz-209">
          <mxGeometry relative="1" as="geometry" />
        </mxCell>
        <mxCell id="NK96kK6ZexJCDKCEKkFz-232" style="edgeStyle=orthogonalEdgeStyle;rounded=1;orthogonalLoop=1;jettySize=auto;html=1;exitX=0.25;exitY=0;exitDx=0;exitDy=0;entryX=0.5;entryY=0;entryDx=0;entryDy=0;" edge="1" parent="NK96kK6ZexJCDKCEKkFz-1" source="NK96kK6ZexJCDKCEKkFz-220" target="NK96kK6ZexJCDKCEKkFz-207">
          <mxGeometry relative="1" as="geometry" />
        </mxCell>
        <mxCell id="NK96kK6ZexJCDKCEKkFz-233" style="edgeStyle=orthogonalEdgeStyle;rounded=1;orthogonalLoop=1;jettySize=auto;html=1;exitX=0.25;exitY=0;exitDx=0;exitDy=0;entryX=0.5;entryY=0;entryDx=0;entryDy=0;" edge="1" parent="NK96kK6ZexJCDKCEKkFz-1" source="NK96kK6ZexJCDKCEKkFz-220" target="NK96kK6ZexJCDKCEKkFz-210">
          <mxGeometry relative="1" as="geometry" />
        </mxCell>
        <mxCell id="NK96kK6ZexJCDKCEKkFz-234" style="edgeStyle=orthogonalEdgeStyle;rounded=1;orthogonalLoop=1;jettySize=auto;html=1;exitX=0.25;exitY=0;exitDx=0;exitDy=0;entryX=0.5;entryY=0;entryDx=0;entryDy=0;" edge="1" parent="NK96kK6ZexJCDKCEKkFz-1" source="NK96kK6ZexJCDKCEKkFz-220" target="NK96kK6ZexJCDKCEKkFz-211">
          <mxGeometry relative="1" as="geometry" />
        </mxCell>
        <mxCell id="NK96kK6ZexJCDKCEKkFz-220" value="" style="rounded=0;whiteSpace=wrap;html=1;fillColor=#b0e3e6;strokeColor=#0e8088;" vertex="1" parent="NK96kK6ZexJCDKCEKkFz-1">
          <mxGeometry x="340" y="230" width="92" height="10" as="geometry" />
        </mxCell>
        <mxCell id="NK96kK6ZexJCDKCEKkFz-221" value="&lt;b&gt;answer span representations&lt;/b&gt;" style="text;html=1;resizable=0;autosize=1;align=center;verticalAlign=middle;points=[];fillColor=none;strokeColor=none;rounded=0;" vertex="1" parent="NK96kK6ZexJCDKCEKkFz-1">
          <mxGeometry x="140" y="330" width="180" height="20" as="geometry" />
        </mxCell>
        <mxCell id="NK96kK6ZexJCDKCEKkFz-222" value="" style="shape=flexArrow;endArrow=classic;html=1;fillColor=#fad7ac;strokeColor=#b46504;" edge="1" parent="NK96kK6ZexJCDKCEKkFz-1">
          <mxGeometry width="50" height="50" relative="1" as="geometry">
            <mxPoint x="229.5" y="390" as="sourcePoint" />
            <mxPoint x="230" y="360" as="targetPoint" />
          </mxGeometry>
        </mxCell>
        <mxCell id="NK96kK6ZexJCDKCEKkFz-235" value="&lt;b&gt;Summarized summary vector&lt;/b&gt;" style="text;html=1;resizable=0;autosize=1;align=center;verticalAlign=middle;points=[];fillColor=none;strokeColor=none;rounded=0;" vertex="1" parent="NK96kK6ZexJCDKCEKkFz-1">
          <mxGeometry x="438" y="225" width="180" height="20" as="geometry" />
        </mxCell>
        <mxCell id="NK96kK6ZexJCDKCEKkFz-237" value="&lt;b&gt;summary representations&lt;/b&gt;" style="text;html=1;resizable=0;autosize=1;align=center;verticalAlign=middle;points=[];fillColor=none;strokeColor=none;rounded=0;" vertex="1" parent="NK96kK6ZexJCDKCEKkFz-1">
          <mxGeometry x="472.25" y="330" width="160" height="20" as="geometry" />
        </mxCell>
        <mxCell id="NK96kK6ZexJCDKCEKkFz-239" style="edgeStyle=orthogonalEdgeStyle;rounded=1;orthogonalLoop=1;jettySize=auto;html=1;entryX=0.637;entryY=1.276;entryDx=0;entryDy=0;entryPerimeter=0;" edge="1" parent="NK96kK6ZexJCDKCEKkFz-1" source="NK96kK6ZexJCDKCEKkFz-238" target="NK96kK6ZexJCDKCEKkFz-220">
          <mxGeometry relative="1" as="geometry" />
        </mxCell>
        <mxCell id="NK96kK6ZexJCDKCEKkFz-238" value="" style="rounded=0;whiteSpace=wrap;html=1;fillColor=none;dashed=1;" vertex="1" parent="NK96kK6ZexJCDKCEKkFz-1">
          <mxGeometry x="470" y="260" width="160" height="90" as="geometry" />
        </mxCell>
        <mxCell id="NK96kK6ZexJCDKCEKkFz-240" value="" style="rounded=0;whiteSpace=wrap;html=1;dashed=1;fillColor=none;" vertex="1" parent="NK96kK6ZexJCDKCEKkFz-1">
          <mxGeometry x="140" y="260" width="180" height="90" as="geometry" />
        </mxCell>
        <mxCell id="NK96kK6ZexJCDKCEKkFz-241" value="" style="rounded=0;whiteSpace=wrap;html=1;dashed=1;fillColor=none;" vertex="1" parent="NK96kK6ZexJCDKCEKkFz-1">
          <mxGeometry x="325" y="220" width="305" height="30" as="geometry" />
        </mxCell>
        <mxCell id="NK96kK6ZexJCDKCEKkFz-243" value="" style="rounded=0;whiteSpace=wrap;html=1;dashed=1;fillColor=none;" vertex="1" parent="NK96kK6ZexJCDKCEKkFz-1">
          <mxGeometry x="40" y="170" width="650" height="200" as="geometry" />
        </mxCell>
        <mxCell id="NK96kK6ZexJCDKCEKkFz-244" value="&lt;b&gt;&lt;font color=&quot;#3333ff&quot;&gt;Span-Summary InfoMax&lt;/font&gt;&lt;/b&gt;" style="text;html=1;resizable=0;autosize=1;align=center;verticalAlign=middle;points=[];fillColor=none;strokeColor=none;rounded=0;dashed=1;" vertex="1" parent="NK96kK6ZexJCDKCEKkFz-1">
          <mxGeometry x="35" y="170" width="150" height="20" as="geometry" />
        </mxCell>
        <mxCell id="NK96kK6ZexJCDKCEKkFz-245" value="" style="shape=flexArrow;endArrow=classic;html=1;fillColor=#fad7ac;strokeColor=#b46504;" edge="1" parent="NK96kK6ZexJCDKCEKkFz-1">
          <mxGeometry width="50" height="50" relative="1" as="geometry">
            <mxPoint x="587.25" y="390" as="sourcePoint" />
            <mxPoint x="587.75" y="360" as="targetPoint" />
          </mxGeometry>
        </mxCell>
        <mxCell id="NK96kK6ZexJCDKCEKkFz-255" value="&lt;font style=&quot;font-size: 14px&quot;&gt;&lt;b&gt;OpenIE&lt;/b&gt;&lt;/font&gt;" style="text;html=1;resizable=0;autosize=1;align=center;verticalAlign=middle;points=[];fillColor=none;strokeColor=none;rounded=0;" vertex="1" parent="NK96kK6ZexJCDKCEKkFz-1">
          <mxGeometry x="378" y="1005" width="60" height="20" as="geometry" />
        </mxCell>
        <mxCell id="NK96kK6ZexJCDKCEKkFz-258" value="" style="endArrow=classic;html=1;exitX=0.846;exitY=0.2;exitDx=0;exitDy=0;exitPerimeter=0;entryX=0.846;entryY=0.6;entryDx=0;entryDy=0;entryPerimeter=0;" edge="1" parent="NK96kK6ZexJCDKCEKkFz-1" source="NK96kK6ZexJCDKCEKkFz-104" target="NK96kK6ZexJCDKCEKkFz-104">
          <mxGeometry width="50" height="50" relative="1" as="geometry">
            <mxPoint x="380" y="1030" as="sourcePoint" />
            <mxPoint x="430" y="980" as="targetPoint" />
            <Array as="points" />
          </mxGeometry>
        </mxCell>
        <mxCell id="NK96kK6ZexJCDKCEKkFz-259" value="" style="endArrow=none;html=1;" edge="1" parent="NK96kK6ZexJCDKCEKkFz-1">
          <mxGeometry width="50" height="50" relative="1" as="geometry">
            <mxPoint x="380" y="880" as="sourcePoint" />
            <mxPoint x="590.5" y="880" as="targetPoint" />
          </mxGeometry>
        </mxCell>
        <mxCell id="NK96kK6ZexJCDKCEKkFz-260" value="" style="endArrow=classic;html=1;" edge="1" parent="NK96kK6ZexJCDKCEKkFz-1">
          <mxGeometry width="50" height="50" relative="1" as="geometry">
            <mxPoint x="563" y="880" as="sourcePoint" />
            <mxPoint x="600" y="880" as="targetPoint" />
          </mxGeometry>
        </mxCell>
        <mxCell id="NK96kK6ZexJCDKCEKkFz-261" value="&lt;b&gt;&lt;font style=&quot;font-size: 14px&quot;&gt;Greedy Seach&lt;/font&gt;&lt;/b&gt;" style="text;html=1;resizable=0;autosize=1;align=center;verticalAlign=middle;points=[];fillColor=none;strokeColor=none;rounded=0;" vertex="1" parent="NK96kK6ZexJCDKCEKkFz-1">
          <mxGeometry x="590.5" y="930" width="110" height="20" as="geometry" />
        </mxCell>
        <mxCell id="NK96kK6ZexJCDKCEKkFz-262" value="&lt;div style=&quot;text-align: left&quot;&gt;&lt;font style=&quot;font-size: 14px&quot;&gt;&lt;b&gt;&lt;font color=&quot;#202124&quot;&gt;Relational T&lt;/font&gt;riples&lt;/b&gt;&lt;/font&gt;&lt;/div&gt;" style="text;html=1;resizable=0;autosize=1;align=center;verticalAlign=middle;points=[];fillColor=none;strokeColor=none;rounded=0;" vertex="1" parent="NK96kK6ZexJCDKCEKkFz-1">
          <mxGeometry x="222.5" y="1050" width="130" height="20" as="geometry" />
        </mxCell>
        <mxCell id="NK96kK6ZexJCDKCEKkFz-263" value="" style="endArrow=classic;html=1;" edge="1" parent="NK96kK6ZexJCDKCEKkFz-1">
          <mxGeometry width="50" height="50" relative="1" as="geometry">
            <mxPoint x="300" y="980" as="sourcePoint" />
            <mxPoint x="290" y="970" as="targetPoint" />
          </mxGeometry>
        </mxCell>
        <mxCell id="NK96kK6ZexJCDKCEKkFz-264" value="" style="endArrow=classic;html=1;" edge="1" parent="NK96kK6ZexJCDKCEKkFz-1">
          <mxGeometry width="50" height="50" relative="1" as="geometry">
            <mxPoint x="300" y="990" as="sourcePoint" />
            <mxPoint x="280" y="990" as="targetPoint" />
            <Array as="points" />
          </mxGeometry>
        </mxCell>
        <mxCell id="NK96kK6ZexJCDKCEKkFz-265" value="" style="endArrow=classic;html=1;" edge="1" parent="NK96kK6ZexJCDKCEKkFz-1">
          <mxGeometry width="50" height="50" relative="1" as="geometry">
            <mxPoint x="300" y="1000" as="sourcePoint" />
            <mxPoint x="290" y="1010" as="targetPoint" />
            <Array as="points">
              <mxPoint x="300" y="1000" />
            </Array>
          </mxGeometry>
        </mxCell>
      </root>
    </mxGraphModel>
  </diagram>
</mxfile>
